PathFileType	4	(X/Y/Z)	C:\Users\WrightLab\Desktop\Jo\P2_Trial11.trc
DataRate	CameraRate	NumFrames	NumMarkers	Units	OrigDataRate	OrigDataStartFrame	OrigNumFrames
100.00	100.00	      17	19	mm	100.00	727	      1163
Frame#	Time	Headset_Front			Headset_Back			Headset_Left			Headset_Right			Left_Shoulder			Right_Shoulder			Sternum			C7			Left Elbow			Right Elbow			Left Wrist			Right Wrist			Left ASIS			Right ASIS			S2			Left Knee			Right Knee			Left Ankle			Right Ankle			
		X1	Y1	Z1	X2	Y2	Z2	X3	Y3	Z3	X4	Y4	Z4	X5	Y5	Z5	X6	Y6	Z6	X7	Y7	Z7	X8	Y8	Z8	X9	Y9	Z9	X10	Y10	Z10	X11	Y11	Z11	X12	Y12	Z12	X13	Y13	Z13	X14	Y14	Z14	X15	Y15	Z15	X16	Y16	Z16	X17	Y17	Z17	X18	Y18	Z18	X19	Y19	Z19	

727	7.260	-594.59094	1455.91394	59.04877	-680.14178	1703.52576	222.70827	-751.21924	1579.27087	128.09901	-523.79382	1555.14771	150.81120	-807.31250	1473.20422	342.41525	-510.72406	1444.87036	207.53293	-685.91437	1335.55054	230.97296	-601.00507	1459.54419	371.88727	-985.79517	1128.37158	325.24799	-353.11887	1144.46997	209.22284				-285.81567	962.18372	69.97481	-733.59967	1050.60254	238.22353	-614.44592	1047.43408	183.24191	-565.00043	974.06415	449.23239	-741.56616	452.05875	433.39569	-525.02454	578.19196	213.87990	-699.47235	98.25872	473.48215	-491.55283	169.13882	294.85986	
728	7.270	-594.83350	1454.82983	55.54710	-680.90845	1703.00281	218.81891	-751.83643	1578.60083	124.53963	-524.50159	1554.52551	148.15109	-808.65057	1472.76404	338.60904	-511.33673	1444.45276	205.68028	-686.73608	1335.04370	227.99669	-602.87378	1459.74756	368.75949	-987.28680	1128.13257	320.22937	-353.90924	1144.26074	208.98709				-285.30576	960.76056	72.21078	-733.89856	1050.07568	234.64595	-614.36328	1047.45752	179.85361	-565.82391	973.64539	446.16644	-741.60913	451.86142	432.35785	-527.14270	578.92523	209.50801	-700.66730	98.49580	474.28464	-497.63550	167.32707	288.00009	
729	7.280	-595.31543	1454.35449	52.62943	-681.72601	1702.47009	214.82338	-752.41083	1577.89380	121.01745	-525.21686	1553.80896	145.23683	-810.16687	1471.96082	334.50510	-511.63306	1442.94067	204.08087	-687.18182	1334.56458	224.53827	-604.29199	1459.05457	365.82538	-987.89691	1127.14856	314.56891	-354.50281	1143.94604	208.97858				-285.52859	959.79932	72.67878	-734.25330	1049.62756	231.03833	-614.21667	1046.90210	176.92053	-566.81714	973.29492	443.30637	-742.08051	451.84637	431.43045	-528.73676	578.65515	205.39919	-700.88464	96.98780	473.86401	-503.85211	166.91104	280.64276	
730	7.290	-595.81488	1453.31396	49.15917	-682.73779	1701.86426	210.96031	-753.01520	1577.09351	116.45305				-811.51721	1471.07349	330.55377	-512.65094	1443.22510	200.98357	-688.09259	1334.36621	220.90773	-605.58636	1458.49402	362.47614				-355.44006	1143.45996	208.54187				-284.97180	958.00488	74.10308	-734.62720	1049.23730	227.34647	-614.92310	1046.98743	173.09372	-568.45978	972.90851	440.20145	-742.44452	451.38632	429.68069	-529.66382	579.88647	199.53725	-701.48517	96.96930	473.41003	-509.77045	166.66359	269.25259	
731	7.300	-595.88147	1452.36841	46.48111	-683.50073	1701.22375	206.93210	-753.63123	1576.39368	112.03648	-526.60474	1552.40283	139.54134	-813.23810	1470.68018	326.30649	-513.16016	1442.36511	198.84236	-688.30444	1333.51221	217.24855	-607.24994	1457.84973	359.15189				-356.32413	1143.06262	207.78967				-284.61389	956.54633	76.00546	-734.98950	1048.79932	223.48145	-614.45679	1046.12134	171.02229	-569.75409	972.28845	437.08047	-742.99152	451.49466	427.99246	-531.35138	579.95978	193.96103	-702.63757	96.60107	472.90112	-515.45392	165.05643	260.07813	
732	7.310	-596.32660	1451.56201	42.60821	-684.27142	1700.49597	202.96977	-754.17310	1575.67505	107.99208	-526.99597	1551.66406	134.62358	-814.54034	1469.84888	321.82755	-513.92828	1442.11853	195.94826	-688.67499	1332.79041	213.88159	-609.45502	1458.09863	356.32037	-698.63898	1035.13586	328.90231	-357.33002	1142.96570	207.00761				-284.46527	954.93738	77.08991	-735.36926	1048.22046	219.52808	-614.71259	1045.79333	166.79628	-570.51532	971.83508	433.49722	-743.67566	450.97568	426.33469	-532.74597	580.00452	189.31239	-704.36871	96.19094	471.53043	-521.00623	164.72801	246.77184	
733	7.320	-596.61652	1450.34888	39.80733	-685.40509	1699.90442	198.97162	-754.74164	1574.95557	103.87579	-527.61072	1550.85547	131.62051	-815.76685	1469.12964	317.23178	-513.74567	1441.97998	192.91603	-689.57239	1332.43762	209.14072	-611.33575	1457.82446	352.75970	-700.17334	1034.29504	323.10635	-358.16885	1142.57996	206.94843				-284.10291	952.41766	79.75047	-735.83636	1047.70117	215.53902	-615.02905	1045.70276	163.60881	-572.08203	971.68634	430.44937	-744.51544	450.59155	424.25604	-533.77173	579.18042	184.00708	-705.13708	95.76031	470.96402	-526.82690	163.12274	235.88568	
734	7.330	-597.14758	1449.72534	36.03910	-685.94720	1699.04077	194.48749	-755.15448	1574.27319	99.29280	-528.14185	1550.13757	127.75941	-817.41669	1468.56738	311.32300	-514.43866	1442.22168	189.74037	-690.59167	1332.02112	204.22391	-612.26416	1456.87244	348.92935	-700.30835	1032.66907	316.59760	-358.96246	1141.75952	205.99300				-283.67215	950.85010	81.29847	-736.48358	1047.36987	211.45691	-614.78510	1044.94055	159.52930	-573.30725	970.86127	426.71964	-744.71704	450.25827	422.00540	-534.70117	579.57141	178.15636	-706.27142	95.82108	469.83487	-532.35071	161.76424	224.21541	
735	7.340	-597.47247	1448.86035	31.74857	-685.77795	1698.12903	190.39609	-755.68872	1573.14832	94.94635				-818.45807	1467.38867	307.78735	-515.16174	1441.28882	185.44121	-691.06512	1331.46606	200.66411	-613.48254	1456.13806	345.00754				-359.82452	1140.45215	205.05045				-283.49734	948.12152	83.78131	-736.84406	1046.81555	207.21695	-615.16809	1044.70166	155.72359	-574.32837	970.47205	423.02051	-745.27319	449.48111	419.54150	-535.29675	578.91882	173.09830	-707.03979	96.14158	469.13382	-538.31012	159.58257	214.16928	
736	7.350	-597.48346	1447.79614	27.30918	-687.09363	1697.12805	185.39833	-756.11285	1572.31567	90.60970				-819.71771	1466.60803	303.04898	-515.68298	1441.06799	181.63557	-691.20782	1330.48743	197.17714	-615.07965	1455.64331	341.08368				-360.91003	1140.45056	204.22588				-283.37112	946.34601	84.91833	-737.16266	1046.09985	202.25705	-614.96344	1043.58728	152.48308	-576.22772	970.26544	419.43039	-746.32458	449.36188	416.92538	-536.11353	578.60706	167.50870	-707.64508	96.30383	467.82153	-543.55609	157.75592	201.16229	
737	7.360	-597.45874	1446.79236	23.92058	-688.27155	1696.49023	180.80322	-756.48608	1571.61279	85.17064	-529.56903	1547.49573	117.22072	-820.94037	1465.98145	297.79065	-516.22516	1440.48059	179.47845	-691.78540	1329.78210	192.51118	-616.24603	1455.02039	337.10892				-361.84595	1139.75354	204.09016				-282.60773	943.67065	88.08759	-737.47400	1045.21277	197.64232	-615.41528	1043.01453	148.54723	-577.18292	968.92444	415.42093	-746.94440	449.11649	414.01605	-536.05670	578.17517	162.40063	-708.01801	95.69953	466.01697	-548.21820	153.98116	189.62978	
738	7.370	-597.35181	1445.61755	20.79057	-688.75073	1695.48706	176.59840	-756.84753	1570.47009	80.62829	-529.87988	1546.36951	114.64485	-821.93225	1465.22607	292.88715	-516.60675	1439.36951	174.83923	-692.45996	1328.90845	188.23907	-617.81738	1454.32007	332.88562				-363.14670	1138.87683	203.13588				-282.23715	940.46198	90.98846	-738.31897	1044.76050	193.21442	-615.94983	1042.13904	144.01247	-578.71240	968.49084	411.79749	-747.99683	448.81784	411.04678	-535.28394	578.00415	155.22340	-708.59772	95.58289	464.62970	-552.56079	152.41119	172.92635	
739	7.380	-597.58728	1445.17346	14.90643	-690.33167	1694.93726	171.18266	-757.11017	1569.23291	76.10763	-530.22241	1545.39038	110.49315	-823.13422	1464.31641	287.56421	-517.41217	1438.71704	170.32133	-693.09149	1328.31384	183.42650	-618.88055	1453.31433	328.54330				-365.14795	1137.25659	201.60538				-281.90442	937.91516	92.44490	-739.10657	1043.85950	188.75677	-617.02710	1041.84338	139.19350	-580.29633	968.19983	407.39105	-749.07605	447.76718	407.38394	-534.73126	577.51367	150.16017	-708.97235	95.09851	463.75903	-558.10773	149.65488	159.74464	
740	7.390	-597.76056	1443.68945	10.76800	-690.80499	1694.32617	166.00589	-757.41412	1568.19543	71.09583	-530.61267	1544.60828	105.81783	-824.40771	1463.69495	281.49869	-517.74249	1437.26941	166.65211	-693.86060	1327.07544	177.94608	-620.27649	1452.70776	324.24997	-904.28680	1163.62451	368.54803	-365.56592	1136.51929	201.35251				-281.93863	934.42999	95.28335	-739.19354	1044.13989	183.06865	-617.07794	1039.83386	135.42793	-581.47491	967.49927	403.19339	-750.49829	447.30585	404.26706	-533.26294	576.25293	145.52100	-709.54907	94.36520	462.02289	-563.32452	146.88200	145.43896	
741	7.400	-597.42786	1442.61206	7.01276	-691.02454	1693.54016	160.78937	-757.52527	1567.34399	64.99007	-530.95667	1543.66602	101.54024	-824.52838	1462.38831	276.56436	-518.13428	1436.68408	162.46474	-694.65271	1326.35193	173.59314	-621.64380	1451.85950	319.51129	-905.34833	1164.61536	360.34857	-366.50583	1135.12854	199.88173				-281.95377	931.37012	99.13487	-739.94025	1042.75122	178.96159	-616.34521	1038.23108	131.48892	-583.16693	966.82660	399.19955	-751.24884	446.54620	400.91080	-530.71405	574.94562	140.38214	-710.78448	94.73753	459.89386	-567.74945	144.67198	128.77785	
742	7.410	-597.29779	1441.25098	1.88252	-691.32336	1692.16541	155.14085	-757.68744	1566.07715	59.68651	-531.22510	1542.46716	97.77351	-825.61713	1461.72925	271.24295	-518.19922	1435.10693	158.93619	-695.13062	1325.47620	168.23738	-622.41412	1451.03870	314.72849	-907.21295	1163.13342	353.00089	-368.03183	1133.94373	198.60513				-282.60120	927.60626	101.38903	-740.69214	1041.68542	174.43915	-618.69617	1037.57642	127.10751	-584.85461	965.97113	394.92596	-752.35175	445.53894	396.99323	-529.48907	573.71783	135.94682	-711.19012	94.53029	459.04001	-572.32220	142.75778	113.02840	
743	7.420	-596.82446	1440.22070	-2.78313	-692.11157	1691.26611	150.63123	-757.85181	1564.66321	54.55244				-826.38629	1460.71460	265.36298	-518.70013	1434.48157	153.70847	-695.76117	1324.46765	163.15053	-623.80878	1450.41040	310.09280	-908.13007	1159.83508	348.84421	-370.13345	1131.92383	197.25990	-993.58844	1113.60425	221.96706	-282.88846	924.03851	105.08530	-741.61829	1040.74487	168.36778	-618.89795	1037.28564	121.88046	-586.28412	964.99103	390.30283	-753.72357	445.30054	393.03943	-527.38428	571.81439	129.58296	-711.28851	94.07115	457.57297	-576.31720	141.03284	95.84473	
